# xmcd CD database file
#
# Track frame offsets:
#	150
#	19499
#	40581
#	64874
#	92329
#	107100
#	133006
#	169674
#	187221
#	211975
#	223759
#	242068
#	268925
#	294789
#
# Disc length: 4246 seconds
#
# Revision: 1
# Processed by: cddbd v1.5.2PL0 Copyright (c) Steve Scherf et al.
# Submitted via: CDex 1.70beta2
#
DISCID=d110940e
DTITLE=Billy's Band - Блюз в голове
DYEAR=2005
DGENRE=Blues
TTITLE0=На его месте должен был быть я
TTITLE1=Немного смерти, немного любви
TTITLE2=Clap Hands
TTITLE3=Последний день лета
TTITLE4=32 рубля
TTITLE5=Где спит твое сердце
TTITLE6=В голове блюз
TTITLE7=Не верь мужикам
TTITLE8=Коктейль
TTITLE9=Парижские сезоны
TTITLE10=Ice Cream Man
TTITLE11=В этом городе
TTITLE12=Выпей вина
TTITLE13=Кладбище девичьих сердец
EXTD=YEAR: 2005
EXTT0=
EXTT1=
EXTT2=
EXTT3=
EXTT4=
EXTT5=
EXTT6=
EXTT7=
EXTT8=
EXTT9=
EXTT10=
EXTT11=
EXTT12=
EXTT13=
PLAYORDER=
